<svg width="256" height="60" viewBox="0 0 256 60" fill="none" xmlns="http://www.w3.org/2000/svg">
<path d="M102.129 48.6688L94.0097 18.2931L85.8909 48.6688C85.4398 50.6117 83.7001 51.9718 81.6382 51.9718C79.5763 51.9718 77.8365 50.6117 77.3855 48.7336L67.0759 12.5938C67.0115 12.269 66.947 11.8814 66.947 11.5575C66.947 9.67935 68.4935 8.125 70.3621 8.125C71.973 8.125 73.2617 9.226 73.6483 10.7156L82.0248 43.098L90.8524 10.5213C91.239 9.16124 92.4633 8.125 94.0741 8.125C95.5561 8.125 96.8449 9.16028 97.2315 10.5213L105.995 43.098L114.371 10.7156C114.758 9.226 116.046 8.125 117.657 8.125C119.59 8.125 121.072 9.67839 121.072 11.5575C121.072 11.8814 121.008 12.269 120.944 12.5938L110.698 48.7336C110.183 50.6108 108.508 51.9718 106.446 51.9718C104.384 51.9718 102.644 50.6117 102.129 48.6688Z" fill="#002D54"/>
<path d="M128.868 48.2119V11.8788C128.868 9.67681 130.092 8.44531 132.347 8.44531H155.157C156.704 8.44531 158.057 9.7406 158.057 11.3607C158.057 12.9141 156.704 14.1456 155.157 14.1456H135.311V26.7747H154.706C156.253 26.7747 157.606 28.0043 157.606 29.5596C157.606 31.1787 156.253 32.4741 154.706 32.4741H135.311V45.9471H155.157C156.704 45.9471 158.057 47.1766 158.057 48.732C158.057 50.3511 156.704 51.6464 155.157 51.6464H132.347C130.092 51.6454 128.868 50.4149 128.868 48.2119Z" fill="#002D54"/>
<path d="M167.078 48.2119V11.8788C167.078 9.67681 168.302 8.44531 170.557 8.44531H182.413C195.817 8.44531 204.709 17.6429 204.709 30.0777C204.709 42.5783 195.817 51.6454 182.413 51.6454H170.557C168.302 51.6454 167.078 50.4149 167.078 48.2119ZM182.413 45.9461C192.336 45.9461 198.071 38.821 198.071 30.0777C198.071 21.204 192.53 14.1456 182.413 14.1456H173.521V45.9461H182.413Z" fill="#002D54"/>
<path d="M233.639 7.73438C246.462 7.73438 255.289 17.2558 255.289 30.0783C255.289 42.9008 246.462 52.4222 233.639 52.4222C220.817 52.4222 211.988 42.9008 211.988 30.0783C211.988 17.2558 220.816 7.73438 233.639 7.73438ZM233.639 13.4985C224.424 13.4985 218.626 20.5578 218.626 30.0783C218.626 39.534 224.425 46.6581 233.639 46.6581C242.725 46.6581 248.653 39.534 248.653 30.0783C248.653 20.5578 242.724 13.4985 233.639 13.4985Z" fill="#002D54"/>
<path d="M1.5879 24.5213C0.916623 24.1317 0.368469 23.1767 0.368469 22.3976V1.96666C0.368469 0.215112 1.60329 -0.502145 3.11318 0.373631L34.4536 18.561C35.1249 18.9505 35.1249 19.5876 34.4536 19.9761L15.325 31.0761C14.6538 31.4656 13.5565 31.4656 12.8852 31.0761L1.5879 24.5213ZM15.325 40.7676C14.6538 41.1572 13.5565 41.1572 12.8852 40.7676L1.5879 34.2118C0.916623 33.8223 0.368469 34.1413 0.368469 34.9194V57.9651C0.368469 59.7166 1.60329 60.4339 3.11318 59.5581L51.3625 31.5584C52.8714 30.6826 52.8714 29.2491 51.3625 28.3733L45.2421 24.8219C44.5708 24.4324 43.4735 24.4324 42.8022 24.8219L15.325 40.7676Z" fill="url(#paint0_linear_2568_1698)"/>
<defs>
<linearGradient id="paint0_linear_2568_1698" x1="-4.55109" y1="55.9834" x2="26.3471" y2="16.2768" gradientUnits="userSpaceOnUse">
<stop stop-color="#0072CE"/>
<stop offset="1" stop-color="#2F94E7"/>
</linearGradient>
</defs>
</svg>
